# xmcd CD database file
#
# Track frame offsets:
#	150
#	11461
#	32581
#	50489
#	59678
#	68330
#	79879
#	89115
#	104432
#	116105
#	129295
#	146809
#	159943
#	169092
#	178522
#	190748
#	199409
#	213996
#	229188
#	243643
#	255638
#	271785
#	290370
#
# Disc length: 4440 seconds
#
# Revision: 1
# Processed by: cddbd v1.5.2PL0 Copyright (c) Steve Scherf et al.
# Submitted via: CDex 1.70beta2
#
DISCID=4d115617
DTITLE=Vienna Boy's Choir - the Christmas Album
DYEAR=2003
DGENRE=Chorus
TTITLE0=Sleigh Ride
TTITLE1=Mary's Boy Child
TTITLE2=Happy Christmas(War is Over)
TTITLE3=Have Yourself a Merry Christmas
TTITLE4=The Christmas Song(Chestnuts Roasting)
TTITLE5=Jingle Bells
TTITLE6=Jingle Bell Rock
TTITLE7=Ukraine Bell Carol
TTITLE8=Wexford Carol
TTITLE9=Suo-Gan
TTITLE10=O Holy Night
TTITLE11=White Christmas
TTITLE12=Winter Woderland
TTITLE13=Let it Snow!Let it Snow!Let it Snow!
TTITLE14=Sant Claus is Coming to Town
TTITLE15=Rockin' Around the Christmas Tree
TTITLE16=Little Drummer Boy/Peace on Earth
TTITLE17=Wonderful Christmas Time
TTITLE18=Rudolpg the Red-Nosed Reindeer
TTITLE19=We Wish You a Merry Christmas
TTITLE20=Coventry Carol
TTITLE21=Away in a Manger/Stille Nacht
TTITLE22=CCCD
EXTD=YEAR: 2003
EXTT0=
EXTT1=
EXTT2=
EXTT3=
EXTT4=
EXTT5=
EXTT6=
EXTT7=
EXTT8=
EXTT9=
EXTT10=
EXTT11=
EXTT12=
EXTT13=
EXTT14=
EXTT15=
EXTT16=
EXTT17=
EXTT18=
EXTT19=
EXTT20=
EXTT21=
EXTT22=
PLAYORDER=
